<svg width="352" height="48" viewBox="0 0 352 48" fill="none" xmlns="http://www.w3.org/2000/svg">
<path d="M307.699 14.5331C308.092 13.5798 308.834 12.8016 309.79 12.3399C310.94 11.7069 312.25 11.3867 313.575 11.409H347.81L352 0.122878H307.886C302.13 0.122878 298.395 2.44266 296.685 7.08595L281.668 47.9856H295.31L307.699 14.5331ZM249.897 13.4942C250.146 12.6601 250.799 11.9973 251.65 11.7106C252.692 11.4649 253.768 11.3643 254.841 11.409H272.361C274.405 11.409 275.427 12.1798 275.427 13.7325C275.431 13.9932 275.388 14.2538 275.303 14.5033L273.927 18.495H248.207L249.897 13.4942ZM238.009 47.9856H276.737L280.864 36.6957H244.95C243.283 36.6957 242.447 36.0627 242.447 34.8116C242.478 34.1488 242.626 33.4972 242.886 32.8791L243.947 29.7885H283.371L289.876 12.1723C290.619 10.3106 291.038 8.34824 291.128 6.35613C291.128 2.20435 288.501 0.126601 283.246 0.122878H246.512C242.968 0.122878 240.737 1.36283 239.82 3.84644L228.371 35.6718C227.621 37.5 227.158 39.4214 226.995 41.38C226.995 45.7812 230.668 47.9856 238.009 47.9856ZM129.334 33.2217L130.147 31.1476C130.644 29.5242 132.265 28.4555 134.025 28.5858H155.552L152.61 36.6957H131.215C130.193 36.841 129.241 36.167 129.09 35.1877C129.062 35.0201 129.062 34.8489 129.086 34.6813C129.093 34.1861 129.175 33.6946 129.334 33.2217ZM120.073 47.9856H162.058L176.142 9.6701C176.523 8.64985 176.713 7.57001 176.709 6.48645C176.709 2.24159 174.498 0.122878 170.075 0.122878H127.768L123.637 11.4127H157.993C159.87 11.4127 160.806 12.0979 160.806 13.4942C160.802 13.8368 160.74 14.1793 160.62 14.5033L159.687 17.296H127.519C123.862 17.0577 120.536 19.3253 119.572 22.7138L114.185 37.5745C113.758 38.7139 113.548 39.9204 113.564 41.1305C113.501 42.7949 113.983 44.437 114.943 45.8222C116.175 47.3116 118.095 48.1196 120.073 47.9856ZM229.358 18.1561L235.735 0.122878H222.285L217.33 13.7437L216.735 15.4267C216.591 16.0672 216.199 16.6294 215.635 17.0018C214.648 17.3853 213.579 17.5492 212.514 17.4821H192.239L198.679 0.126601H184.851L167.701 47.9856H181.781L188.314 28.6454H208.274C210.151 28.6454 211.104 29.446 211.135 31.0508C211.139 31.3338 211.104 31.6168 211.026 31.8886L205.192 47.9856H219.214L225.51 29.3491C225.709 28.8055 225.806 28.2321 225.798 27.6549C225.794 26.7538 225.553 25.8639 225.095 25.0745C224.76 24.408 224.15 23.9053 223.408 23.6931C226.381 23.1755 228.732 20.9897 229.358 18.1561ZM54.8133 28.4257C55.2875 27.2528 55.5401 26.0091 55.5673 24.7505C55.6683 22.8366 54.7628 20.9972 53.1577 19.8466C51.3311 18.6439 49.147 18.0407 46.9318 18.1375H24.216C22.3388 18.1375 21.4022 17.5454 21.4022 16.3539C21.8181 14.857 22.4282 13.416 23.2094 12.0606C23.6175 11.3569 25.2769 11.409 26.7887 11.409H56.3212L60.4524 0.119154H18.2698C14.8071 -0.163837 12.4014 2.007 11.1383 5.44385C11.0567 5.76408 9.42833 10.3292 6.25705 19.1354C5.82178 20.2897 5.5886 21.5036 5.56916 22.7287C5.47978 24.6984 6.41639 26.5825 8.07199 27.7517C9.84806 28.9321 11.9817 29.5204 14.1425 29.4236H36.8544C38.9842 29.4236 40.7991 29.3938 40.049 31.3152C39.9907 31.4641 39.3495 32.7972 38.6383 34.3238C37.8221 36.0888 36.3337 36.692 33.6637 36.692H4.1895L0 47.9856H42.1749C43.9043 48.0861 45.6065 47.5462 46.9318 46.4776C48.0472 45.4014 48.8633 44.0796 49.3102 42.6237C51.7314 36.4128 53.5658 31.6801 54.8133 28.4257ZM73.2891 28.5858H98.3834L91.1858 47.9856H104.827L122.599 0H109.02L102.581 17.4747H77.6108L83.93 0H70.2267L52.5126 47.9856H66.1538L73.2891 28.5858Z" fill="white"/>
</svg>
