<svg width="10" height="6" viewBox="0 0 10 6" fill="none" xmlns="http://www.w3.org/2000/svg">
<path d="M8.67178 0.454648L7.16598 2.00007C7.11707 2.05027 7.01449 2.15538 7.01449 2.15538L6.8955 2.2775C6.8955 2.2775 6.87909 2.29448 6.63451 2.5455C6.38993 2.79651 6.28317 2.9061 6.28317 2.9061L6.19178 3.00019C6.19178 3.00019 6.15198 3.04075 6.10306 3.09095L4.59726 4.63637C4.35268 4.88738 4.35268 5.29442 4.59726 5.54544C4.84184 5.79645 5.23845 5.79645 5.48303 5.54544L6.98883 4.00002C7.03774 3.94982 7.07741 3.90911 7.07741 3.90911L7.16894 3.81517C7.16894 3.81517 7.27571 3.70559 7.52029 3.45458C7.76487 3.20356 7.90033 3.06453 7.90033 3.06453L7.96317 3.00004C7.96317 3.00004 8.00283 2.95934 8.05175 2.90914L9.55755 1.36372C9.80213 1.1127 9.80213 0.705663 9.55755 0.454648C9.31297 0.203633 8.91636 0.203633 8.67178 0.454648Z" fill="white"/>
<path d="M0.442633 1.36366L1.94844 2.90908C1.99735 2.95928 2.09977 3.06456 2.09977 3.06456L2.21876 3.18668C2.21876 3.18668 2.23531 3.20352 2.47989 3.45453C2.72447 3.70555 2.83124 3.81512 2.83124 3.81512L2.92292 3.90891C2.92292 3.90891 2.96244 3.94976 3.01136 3.99997L4.51716 5.54538C4.76174 5.7964 5.15834 5.7964 5.40292 5.54538C5.6475 5.29437 5.6475 4.88733 5.40292 4.63631L3.89712 3.0909C3.84821 3.04069 3.80855 2.99999 3.80855 2.99999L3.71701 2.90605C3.71701 2.90605 3.61024 2.79647 3.36566 2.54545C3.12108 2.29444 2.98562 2.15541 2.98562 2.15541L2.92278 2.09092C2.92278 2.09092 2.88312 2.05021 2.8342 2.00001L1.3284 0.454594C1.08382 0.203579 0.687214 0.20358 0.442634 0.454595C0.198053 0.70561 0.198053 1.11265 0.442633 1.36366Z" fill="white"/>
</svg>
