<svg width="40" height="40" viewBox="0 0 40 40" fill="none" xmlns="http://www.w3.org/2000/svg">
<rect width="40" height="40" rx="5" fill="#F6F6F6"/>
<path fill-rule="evenodd" clip-rule="evenodd" d="M12.0008 21.7871V21.5681C12.033 20.9202 12.2406 20.2925 12.6024 19.7496C13.2045 19.0975 13.6167 18.2983 13.7957 17.436C13.7957 16.7695 13.7957 16.0935 13.8539 15.427C14.1547 12.2184 17.3273 10 20.4611 10H20.5387C23.6725 10 26.845 12.2184 27.1555 15.427C27.2137 16.0935 27.1555 16.7695 27.204 17.436C27.3854 18.3003 27.7972 19.1019 28.3974 19.7591C28.7618 20.2972 28.9698 20.9227 28.9989 21.5681V21.7776C29.0206 22.648 28.7208 23.4968 28.1548 24.1674C27.407 24.9515 26.3921 25.4393 25.3024 25.5384C22.107 25.8812 18.883 25.8812 15.6876 25.5384C14.5991 25.435 13.5858 24.9479 12.8352 24.1674C12.278 23.4963 11.9822 22.6526 12.0008 21.7871Z" stroke="#212121" stroke-linecap="round" stroke-linejoin="round"/>
<path d="M18.0547 28.8518C18.554 29.4785 19.2871 29.884 20.092 29.9788C20.8968 30.0735 21.7069 29.8495 22.343 29.3564C22.5387 29.2106 22.7147 29.041 22.8669 28.8518" stroke="#212121" stroke-linecap="round" stroke-linejoin="round"/>
</svg>
