<svg width="11" height="6" viewBox="0 0 11 6" fill="none" xmlns="http://www.w3.org/2000/svg">
<path d="M9.53917 0.454718L7.88291 2.00011C7.82911 2.05031 7.71628 2.15542 7.71628 2.15542L7.5854 2.27754C7.5854 2.27754 7.56736 2.29453 7.29834 2.54554C7.02932 2.79655 6.9119 2.90613 6.9119 2.90613L6.81138 3.00022C6.81138 3.00022 6.76759 3.04078 6.71379 3.09098L5.05753 4.63637C4.78852 4.88739 4.78852 5.29442 5.05754 5.54543C5.32655 5.79644 5.76279 5.79644 6.0318 5.54543L7.68806 4.00004C7.74186 3.94983 7.78549 3.90913 7.78549 3.90913L7.88617 3.81519C7.88617 3.81519 8.0036 3.70561 8.27262 3.4546C8.54164 3.20359 8.69064 3.06456 8.69064 3.06456L8.75975 3.00007C8.75975 3.00007 8.80338 2.95937 8.85718 2.90917L10.5134 1.36377C10.7825 1.11276 10.7825 0.705729 10.5134 0.454717C10.2444 0.203706 9.80819 0.203706 9.53917 0.454718Z"/>
<path d="M0.486398 1.36373L2.14265 2.90913C2.19646 2.95933 2.30911 3.06461 2.30911 3.06461L2.43999 3.18672C2.43999 3.18672 2.45819 3.20356 2.7272 3.45457C2.99622 3.70558 3.11367 3.81515 3.11367 3.81515L3.21451 3.90894C3.21451 3.90894 3.25797 3.94979 3.31178 4L4.96803 5.54539C5.23705 5.7964 5.67328 5.7964 5.9423 5.54539C6.21132 5.29438 6.21132 4.88734 5.9423 4.63633L4.28604 3.09094C4.23224 3.04074 4.18862 3.00003 4.18862 3.00003L4.08794 2.90609C4.08794 2.90609 3.9705 2.79652 3.70148 2.54551C3.43247 2.29449 3.28346 2.15547 3.28346 2.15547L3.21435 2.09098C3.21435 2.09098 3.17073 2.05027 3.11692 2.00007L1.46067 0.454678C1.19165 0.203667 0.755416 0.203667 0.486398 0.454679C0.21738 0.70569 0.21738 1.11272 0.486398 1.36373Z"/>
</svg>
