<svg width="11" height="6" viewBox="0 0 11 6" fill="none" xmlns="http://www.w3.org/2000/svg">
<path d="M1.46083 5.54528L3.11709 3.99989C3.17089 3.94968 3.28372 3.84457 3.28372 3.84457L3.4146 3.72246C3.4146 3.72246 3.43264 3.70547 3.70166 3.45446C3.97068 3.20345 4.0881 3.09387 4.0881 3.09387L4.18862 2.99978C4.18862 2.99978 4.23241 2.95922 4.28621 2.90902L5.94247 1.36363C6.21148 1.11261 6.21148 0.705581 5.94246 0.454569C5.67345 0.203558 5.23721 0.203558 4.9682 0.454569L3.31194 1.99996C3.25814 2.05017 3.21451 2.09087 3.21451 2.09087L3.11383 2.18481C3.11383 2.18481 2.9964 2.29439 2.72738 2.5454C2.45836 2.79641 2.30936 2.93544 2.30936 2.93544L2.24025 2.99993C2.24025 2.99993 2.19662 3.04063 2.14282 3.09083L0.486563 4.63623C0.217545 4.88724 0.217545 5.29427 0.486563 5.54528C0.755581 5.79629 1.19181 5.79629 1.46083 5.54528Z"/>
<path d="M10.5136 4.63627L8.85735 3.09087C8.80354 3.04067 8.69089 2.93539 8.69089 2.93539L8.56001 2.81328C8.56001 2.81328 8.54181 2.79644 8.2728 2.54543C8.00378 2.29442 7.88633 2.18485 7.88633 2.18485L7.78549 2.09106C7.78549 2.09106 7.74203 2.05021 7.68822 2L6.03197 0.45461C5.76295 0.203599 5.32672 0.203599 5.0577 0.45461C4.78868 0.705622 4.78868 1.11266 5.0577 1.36367L6.71396 2.90906C6.76776 2.95926 6.81138 2.99997 6.81138 2.99997L6.91206 3.09391C6.91206 3.09391 7.0295 3.20348 7.29852 3.45449C7.56753 3.70551 7.71654 3.84453 7.71654 3.84453L7.78565 3.90902C7.78565 3.90902 7.82927 3.94973 7.88308 3.99993L9.53933 5.54532C9.80835 5.79633 10.2446 5.79633 10.5136 5.54532C10.7826 5.29431 10.7826 4.88728 10.5136 4.63627Z"/>
</svg>
