<svg width="14" height="9" viewBox="0 0 14 9" fill="none" xmlns="http://www.w3.org/2000/svg">
<path d="M11.5624 1.10627L9.55465 3.16683C9.48942 3.23377 9.35265 3.37392 9.35265 3.37392L9.194 3.53674C9.194 3.53674 9.17213 3.55939 8.84602 3.89408C8.51991 4.22876 8.37757 4.37488 8.37757 4.37488L8.25571 4.50033C8.25571 4.50033 8.20264 4.55441 8.13742 4.62134L6.12968 6.6819C5.80357 7.01659 5.80357 7.55931 6.12968 7.894C6.45579 8.22869 6.9846 8.22869 7.3107 7.894L9.31844 5.83344C9.38366 5.7665 9.43654 5.71223 9.43654 5.71223L9.55859 5.58697C9.55859 5.58697 9.70095 5.44087 10.0271 5.10618C10.3532 4.7715 10.5338 4.58612 10.5338 4.58612L10.6176 4.50014C10.6176 4.50014 10.6704 4.44586 10.7357 4.37893L12.7434 2.31837C13.0695 1.98368 13.0695 1.44096 12.7434 1.10627C12.4173 0.771585 11.8885 0.771585 11.5624 1.10627Z" fill="#17171B"/>
<path d="M0.590171 2.31821L2.59791 4.37877C2.66313 4.44571 2.79969 4.58608 2.79969 4.58608L2.95834 4.7489C2.95834 4.7489 2.9804 4.77135 3.30651 5.10604C3.63262 5.44073 3.77499 5.58682 3.77499 5.58682L3.89723 5.71188C3.89723 5.71188 3.94992 5.76635 4.01514 5.83328L6.02288 7.89384C6.34898 8.22853 6.87779 8.22853 7.2039 7.89384C7.53001 7.55916 7.53001 7.01644 7.2039 6.68175L5.19616 4.62119C5.13094 4.55425 5.07806 4.49998 5.07806 4.49998L4.95601 4.37472C4.95601 4.37472 4.81365 4.22862 4.48755 3.89393C4.16144 3.55925 3.98082 3.37387 3.98082 3.37387L3.89704 3.28789C3.89704 3.28789 3.84415 3.23361 3.77893 3.16668L1.77119 1.10612C1.44509 0.77143 0.916279 0.771431 0.590172 1.10612C0.264064 1.44081 0.264064 1.98352 0.590171 2.31821Z" fill="#17171B"/>
</svg>
