<svg width="200" height="25" viewBox="0 0 200 25" fill="none" xmlns="http://www.w3.org/2000/svg">
<path d="M145.859 22V21.5254H144.453V17.1836H145.578L148.25 22.0176L151.203 22C151.203 21.7422 151.127 21.5957 150.975 21.5605C150.904 21.5488 150.834 21.543 150.764 21.543H150.395L147.635 16.9902C148.83 16.6738 149.592 16.041 149.92 15.0918C150.014 14.7988 150.061 14.5059 150.061 14.2129C150.061 13.334 149.674 12.6309 148.9 12.1035C148.256 11.6699 147.471 11.4531 146.545 11.4531H140.885V11.9277H142.291V21.5254H140.885V22H145.859ZM145.666 11.9277C146.615 11.9277 147.254 12.3672 147.582 13.2461C147.699 13.5625 147.758 13.9023 147.758 14.2656C147.758 15.2031 147.459 15.8887 146.861 16.3223C146.545 16.5449 146.182 16.6562 145.771 16.6562H144.453V11.9277H145.666ZM153.91 18.2031C153.91 16.4219 154.227 15.3262 154.859 14.916C155.117 14.7637 155.416 14.6875 155.756 14.6875C156.646 14.6875 157.209 15.1914 157.443 16.1992C157.561 16.6914 157.619 17.3359 157.619 18.1328C157.619 20.0195 157.262 21.1562 156.547 21.543C156.312 21.6602 156.049 21.7188 155.756 21.7188C154.877 21.7188 154.32 21.2148 154.086 20.207C153.969 19.7031 153.91 19.0352 153.91 18.2031ZM155.826 14.2305C154.49 14.2305 153.436 14.6875 152.662 15.6016C152.076 16.3047 151.783 17.1484 151.783 18.1328C151.783 19.4922 152.264 20.5586 153.225 21.332C153.928 21.8945 154.754 22.1758 155.703 22.1758C157.004 22.1758 158.041 21.707 158.814 20.7695C159.424 20.0312 159.729 19.1523 159.729 18.1328C159.729 16.7617 159.236 15.7129 158.252 14.9863C157.572 14.4824 156.764 14.2305 155.826 14.2305ZM163.016 18.2031C163.016 16.4219 163.332 15.3262 163.965 14.916C164.223 14.7637 164.521 14.6875 164.861 14.6875C165.752 14.6875 166.314 15.1914 166.549 16.1992C166.666 16.6914 166.725 17.3359 166.725 18.1328C166.725 20.0195 166.367 21.1562 165.652 21.543C165.418 21.6602 165.154 21.7188 164.861 21.7188C163.982 21.7188 163.426 21.2148 163.191 20.207C163.074 19.7031 163.016 19.0352 163.016 18.2031ZM164.932 14.2305C163.596 14.2305 162.541 14.6875 161.768 15.6016C161.182 16.3047 160.889 17.1484 160.889 18.1328C160.889 19.4922 161.369 20.5586 162.33 21.332C163.033 21.8945 163.859 22.1758 164.809 22.1758C166.109 22.1758 167.146 21.707 167.92 20.7695C168.529 20.0312 168.834 19.1523 168.834 18.1328C168.834 16.7617 168.342 15.7129 167.357 14.9863C166.678 14.4824 165.869 14.2305 164.932 14.2305ZM169.713 14.9863H170.926V19.5566C171.031 21.2559 171.822 22.1348 173.299 22.1934C174.225 22.1934 174.852 21.8242 175.18 21.0859C175.297 20.8281 175.391 20.5176 175.461 20.1543L174.986 20.084C174.729 21.127 174.312 21.6543 173.738 21.666C173.246 21.666 172.959 21.332 172.877 20.6641C172.865 20.5469 172.859 20.4297 172.859 20.3125V14.9863H175.32V14.5293H172.859V12.4902L170.926 12.8594V14.5293H169.713V14.9863Z" fill="white"/>
<path d="M137.241 6.35822C137.416 5.94118 137.747 5.60071 138.173 5.39871C138.687 5.12177 139.271 4.98167 139.862 4.99144H155.131L157 0.053759H137.324C134.757 0.053759 133.091 1.06866 132.328 3.1001L125.631 20.9937H131.715L137.241 6.35822ZM111.46 5.90371C111.571 5.5388 111.862 5.24883 112.242 5.12339C112.706 5.01588 113.186 4.97189 113.665 4.99144H121.479C122.391 4.99144 122.847 5.32866 122.847 6.00797C122.848 6.12201 122.829 6.23604 122.791 6.34519L122.178 8.09154H110.706L111.46 5.90371ZM106.157 20.9937H123.431L125.272 16.0544H109.253C108.51 16.0544 108.137 15.7774 108.137 15.2301C108.151 14.9401 108.217 14.655 108.333 14.3846L108.806 13.0325H126.39L129.291 5.3254C129.623 4.51087 129.81 3.65235 129.85 2.78081C129.85 0.964404 128.678 0.055388 126.334 0.053759H109.95C108.369 0.053759 107.374 0.596236 106.965 1.68282L101.859 15.6064C101.524 16.4063 101.318 17.2469 101.245 18.1037C101.245 20.0293 102.883 20.9937 106.157 20.9937ZM57.6861 14.5345L58.0484 13.6271C58.2703 12.9168 58.9931 12.4493 59.7783 12.5063H69.3797L68.0675 16.0544H58.5251C58.0692 16.1179 57.6445 15.8231 57.5769 15.3946C57.5648 15.3213 57.5648 15.2464 57.5752 15.1731C57.5786 14.9564 57.615 14.7414 57.6861 14.5345ZM53.5554 20.9937H72.2814L78.5633 4.23067C78.7331 3.78431 78.8181 3.31188 78.8163 2.83782C78.8163 0.980694 77.83 0.053759 75.8574 0.053759H56.9875L55.1449 4.99307H70.4682C71.3055 4.99307 71.7232 5.29282 71.7232 5.90371C71.7215 6.05359 71.6938 6.20346 71.64 6.34519L71.224 7.56698H56.8766C55.2455 7.46273 53.7617 8.45482 53.3318 9.93727L50.9293 16.4388C50.7386 16.9373 50.645 17.4652 50.6519 17.9946C50.6242 18.7228 50.8391 19.4412 51.2673 20.0472C51.8168 20.6988 52.6731 21.0523 53.5554 20.9937ZM102.299 7.9433L105.143 0.053759H99.144L96.9339 6.01286L96.6687 6.7492C96.6046 7.02939 96.4295 7.27538 96.1782 7.43829C95.7379 7.60608 95.2612 7.67776 94.7862 7.64844H85.743L88.6153 0.0553881H82.4478L74.7983 20.9937H81.0784L83.9923 12.5324H92.8951C93.7323 12.5324 94.157 12.8826 94.1709 13.5847C94.1726 13.7085 94.157 13.8324 94.1223 13.9513L91.5205 20.9937H97.7746L100.583 12.8403C100.671 12.6024 100.714 12.3515 100.711 12.099C100.709 11.7048 100.602 11.3155 100.397 10.9701C100.248 10.6785 99.9761 10.4586 99.645 10.3657C100.971 10.1393 102.02 9.18301 102.299 7.9433ZM24.448 12.4362C24.6595 11.9231 24.7721 11.379 24.7843 10.8284C24.8293 9.99103 24.4255 9.18627 23.7096 8.68289C22.8949 8.15671 21.9207 7.8928 20.9326 7.93515H10.8009C9.96363 7.93515 9.54588 7.67613 9.54588 7.15483C9.73135 6.49995 10.0035 5.8695 10.3519 5.27653C10.5339 4.96863 11.2741 4.99144 11.9484 4.99144H25.1206L26.9632 0.0521299H8.14875C6.60429 -0.0716787 5.53131 0.878064 4.96795 2.38169C4.93155 2.52179 4.20525 4.51901 2.79079 8.37174C2.59665 8.87675 2.49264 9.40782 2.48397 9.94378C2.44411 10.8056 2.86186 11.6299 3.60029 12.1414C4.39246 12.6578 5.3441 12.9152 6.30787 12.8728H16.4379C17.3878 12.8728 18.1973 12.8598 17.8628 13.7004C17.8368 13.7656 17.5508 14.3488 17.2335 15.0167C16.8695 15.7889 16.2056 16.0528 15.0148 16.0528H1.86861L0 20.9937H18.8109C19.5823 21.0377 20.3415 20.8015 20.9326 20.3339C21.4301 19.8631 21.7941 19.2848 21.9935 18.6479C23.0734 15.9306 23.8916 13.86 24.448 12.4362ZM32.6886 12.5063H43.8812L40.671 20.9937H46.7552L54.6821 0H48.6256L45.7533 7.64518H34.6162L37.4347 0H31.3227L23.4218 20.9937H29.5061L32.6886 12.5063Z" fill="white"/>
<path d="M182 5H200" stroke="white"/>
<path d="M182 10.5H195.5" stroke="white"/>
<path d="M182 16H191" stroke="white"/>
</svg>
