<svg width="7" height="5" viewBox="0 0 7 5" fill="none" xmlns="http://www.w3.org/2000/svg">
<path d="M6.07044 0.318156L5.01638 1.39995C4.98214 1.43509 4.91034 1.50867 4.91034 1.50867L4.82704 1.59415C4.82704 1.59415 4.81556 1.60604 4.64435 1.78175C4.47315 1.95746 4.39842 2.03417 4.39842 2.03417L4.33444 2.10004C4.33444 2.10004 4.30658 2.12842 4.27234 2.16357L3.21828 3.24536C3.04707 3.42107 3.04707 3.706 3.21828 3.88171C3.38948 4.05742 3.66711 4.05742 3.83831 3.88171L4.89238 2.79992C4.92662 2.76477 4.95438 2.73628 4.95438 2.73628L5.01845 2.67052C5.01845 2.67052 5.09319 2.59382 5.2644 2.41811C5.4356 2.2424 5.53043 2.14508 5.53043 2.14508L5.57441 2.09993C5.57441 2.09993 5.60218 2.07144 5.63642 2.0363L6.69048 0.954505C6.86169 0.778794 6.86169 0.493867 6.69048 0.318156C6.51927 0.142446 6.24165 0.142446 6.07044 0.318156Z" fill="white"/>
<path d="M0.310527 0.95476L1.36459 2.03655C1.39883 2.07169 1.47052 2.14539 1.47052 2.14539L1.55381 2.23087C1.55381 2.23087 1.5654 2.24266 1.7366 2.41837C1.90781 2.59408 1.98255 2.67078 1.98255 2.67078L2.04673 2.73643C2.04673 2.73643 2.07439 2.76503 2.10863 2.80017L3.16269 3.88196C3.3339 4.05767 3.61152 4.05767 3.78273 3.88196C3.95394 3.70625 3.95394 3.42132 3.78273 3.24561L2.72867 2.16382C2.69443 2.12868 2.66667 2.10019 2.66667 2.10019L2.60259 2.03443C2.60259 2.03443 2.52785 1.95772 2.35665 1.78201C2.18544 1.6063 2.09061 1.50898 2.09061 1.50898L2.04663 1.46384C2.04663 1.46384 2.01887 1.43535 1.98463 1.4002L0.930564 0.318412C0.759357 0.142701 0.481733 0.142701 0.310527 0.318412C0.139321 0.494122 0.139321 0.77905 0.310527 0.95476Z" fill="white"/>
</svg>
